<svg width="21" height="18" viewBox="0 0 21 18" fill="none" xmlns="http://www.w3.org/2000/svg">
<g id="Icon">
<g id="Vector">
<path fill-rule="evenodd" clip-rule="evenodd" d="M4.03564 1.74951C2.793 1.74951 1.78564 2.75687 1.78564 3.99951V5.99979C1.78564 6.414 1.44986 6.74979 1.03564 6.74979C0.621431 6.74979 0.285645 6.414 0.285645 5.99979V3.99951C0.285645 1.92844 1.96458 0.249512 4.03564 0.249512H6.81689C7.23111 0.249512 7.56689 0.585298 7.56689 0.999512C7.56689 1.41373 7.23111 1.74951 6.81689 1.74951H4.03564ZM13.0044 0.999512C13.0044 0.585298 13.3402 0.249512 13.7544 0.249512H16.5356C18.6067 0.249512 20.2856 1.92844 20.2856 3.99951V5.99979C20.2856 6.414 19.9499 6.74979 19.5356 6.74979C19.1214 6.74979 18.7856 6.414 18.7856 5.99979V3.99951C18.7856 2.75687 17.7783 1.74951 16.5356 1.74951H13.7544C13.3402 1.74951 13.0044 1.41373 13.0044 0.999512ZM1.03564 11.2501C1.44986 11.2501 1.78564 11.5859 1.78564 12.0001V14.0004C1.78564 15.243 2.793 16.2504 4.03564 16.2504H6.81689C7.23111 16.2504 7.56689 16.5862 7.56689 17.0004C7.56689 17.4146 7.23111 17.7504 6.81689 17.7504H4.03564C1.96458 17.7504 0.285645 16.0715 0.285645 14.0004V12.0001C0.285645 11.5859 0.621431 11.2501 1.03564 11.2501ZM19.5356 11.2501C19.9499 11.2501 20.2856 11.5859 20.2856 12.0001V14.0004C20.2856 16.0715 18.6067 17.7504 16.5356 17.7504H13.7544C13.3402 17.7504 13.0044 17.4146 13.0044 17.0004C13.0044 16.5862 13.3402 16.2504 13.7544 16.2504H16.5356C17.7783 16.2504 18.7856 15.243 18.7856 14.0004V12.0001C18.7856 11.5859 19.1214 11.2501 19.5356 11.2501Z" fill="#A6A6A6"/>
<path fill-rule="evenodd" clip-rule="evenodd" d="M3.34033 9.13185C3.34033 8.71764 3.67612 8.38185 4.09033 8.38185L16.481 8.38185C16.8952 8.38185 17.231 8.71764 17.231 9.13185C17.231 9.54606 16.8952 9.88185 16.481 9.88185L4.09033 9.88185C3.67612 9.88185 3.34033 9.54606 3.34033 9.13185Z" fill="#A6A6A6"/>
<path fill-rule="evenodd" clip-rule="evenodd" d="M6.28565 3.76564C6.69986 3.76564 7.03565 4.10143 7.03565 4.51564V6.30661C7.03565 6.72082 6.69986 7.05661 6.28565 7.05661C5.87143 7.05661 5.53565 6.72082 5.53565 6.30661V4.51564C5.53565 4.10143 5.87143 3.76564 6.28565 3.76564ZM6.28565 8.50022C6.69986 8.50022 7.03565 8.83601 7.03565 9.25022V13.4851C7.03565 13.8993 6.69986 14.2351 6.28565 14.2351C5.87143 14.2351 5.53565 13.8993 5.53565 13.4851V9.25022C5.53565 8.83601 5.87143 8.50022 6.28565 8.50022Z" fill="#A6A6A6"/>
<path fill-rule="evenodd" clip-rule="evenodd" d="M10.2856 3.76564C10.6999 3.76564 11.0356 4.10143 11.0356 4.51564V9.15744C11.0356 9.57166 10.6999 9.90744 10.2856 9.90744C9.87143 9.90744 9.53564 9.57166 9.53564 9.15744V4.51564C9.53564 4.10143 9.87143 3.76564 10.2856 3.76564ZM10.2856 11.3511C10.6999 11.3511 11.0356 11.6868 11.0356 12.1011L11.0356 13.4851C11.0356 13.8993 10.6999 14.2351 10.2856 14.2351C9.87143 14.2351 9.53565 13.8993 9.53565 13.4851L9.53564 12.1011C9.53564 11.6868 9.87143 11.3511 10.2856 11.3511Z" fill="#A6A6A6"/>
<path fill-rule="evenodd" clip-rule="evenodd" d="M14.2856 3.76564C14.6999 3.76564 15.0356 4.10143 15.0356 4.51564V8.47597C15.0356 8.89018 14.6999 9.22597 14.2856 9.22597C13.8714 9.22597 13.5356 8.89018 13.5356 8.47597V4.51564C13.5356 4.10143 13.8714 3.76564 14.2856 3.76564ZM14.2856 10.6696C14.6999 10.6696 15.0356 11.0054 15.0356 11.4196L15.0356 13.4851C15.0356 13.8993 14.6999 14.2351 14.2856 14.2351C13.8714 14.2351 13.5356 13.8993 13.5356 13.4851L13.5356 11.4196C13.5356 11.0054 13.8714 10.6696 14.2856 10.6696Z" fill="#A6A6A6"/>
</g>
</g>
</svg>
