<svg width="18" height="19" viewBox="0 0 18 19" fill="none" xmlns="http://www.w3.org/2000/svg">
<g id="Icon">
<path id="Vector" fill-rule="evenodd" clip-rule="evenodd" d="M16.5 14.2666V7.94817C16.5 7.15604 16.1246 6.41078 15.4881 5.93928L9.89284 1.79466C9.36245 1.40178 8.63755 1.40178 8.10716 1.79466L2.51193 5.93928C1.87541 6.41078 1.5 7.15604 1.5 7.94817V14.2666C1.5 15.6473 2.61929 16.7666 4 16.7666H14C15.3807 16.7666 16.5 15.6473 16.5 14.2666ZM1.61909 4.73394C0.600653 5.48834 0 6.68076 0 7.94817V14.2666C0 16.4757 1.79086 18.2666 4 18.2666H14C16.2091 18.2666 18 16.4757 18 14.2666V7.94817C18 6.68076 17.3993 5.48834 16.3809 4.73394L10.7857 0.589328C9.72489 -0.196443 8.27511 -0.196443 7.21432 0.589329L1.61909 4.73394Z" fill="#4D4D4D"/>
<path id="Vector_2" fill-rule="evenodd" clip-rule="evenodd" d="M6.25 13.2666C6.25 12.8524 6.58579 12.5166 7 12.5166H11C11.4142 12.5166 11.75 12.8524 11.75 13.2666C11.75 13.6808 11.4142 14.0166 11 14.0166H7C6.58579 14.0166 6.25 13.6808 6.25 13.2666Z" fill="#A6A6A6"/>
</g>
</svg>
